<?xml version="1.0" encoding="utf-8"?><!-- Uploaded to: SVG Repo, www.svgrepo.com, Generator: SVG Repo Mixer Tools -->
<svg fill="#000000" width="800px" height="800px" viewBox="0 0 24 24" id="chat-left-3" data-name="Flat Color" xmlns="http://www.w3.org/2000/svg" class="icon flat-color"><path id="secondary" d="M17,21h3a2,2,0,0,0,2-2V8a1,1,0,0,0-2,0V19H17a1,1,0,0,0,0,2Z" style="fill: rgb(44, 169, 188);"></path><path id="primary" d="M4,3H16a2,2,0,0,1,2,2V15a2,2,0,0,1-2,2H14v2a1,1,0,0,1-.51.87A1,1,0,0,1,13,20a1,1,0,0,1-.51-.14L7.72,17H4a2,2,0,0,1-2-2V5A2,2,0,0,1,4,3Z" style="fill: rgb(0, 0, 0);"></path></svg>